<svg width="614" height="483" viewBox="0 0 614 483" fill="none" xmlns="http://www.w3.org/2000/svg">
<path d="M187 1C203.159 33.3946 215.044 50.373 239 79.5C259.907 102.778 273.961 114.24 301.5 133C327.454 149.406 342.364 158.18 370.5 172L456.5 209C480.886 220.432 490.812 229.03 510 243.5L538.5 265.5L613.5 327.5" stroke="black" stroke-opacity="0.35"/>
<path d="M0.5 -1L33.5 62.5C58.7012 103.111 74.4387 125.199 111 161C144.184 187.664 163.337 202.461 206 226.5C248.473 250.27 276.552 261.068 325.5 281C348.23 288.49 363.424 299.04 390 316.5C429.812 344.563 449.474 360.468 482 389L554 445.5C580.707 462.679 592.054 469.459 613.5 482.5" stroke="black" stroke-opacity="0.35"/>
</svg>
